<svg xmlns="http://www.w3.org/2000/svg" xmlns:xlink="http://www.w3.org/1999/xlink" viewBox="0,0,256,256" width="64px" height="64px"><g fill="#ffffff" fill-rule="nonzero" stroke="none" stroke-width="1" stroke-linecap="butt" stroke-linejoin="miter" stroke-miterlimit="10" stroke-dasharray="" stroke-dashoffset="0" font-family="none" font-weight="none" font-size="none" text-anchor="none" style="mix-blend-mode: normal"><g transform="scale(4,4)"><path d="M36.44141,4c-0.40486,0.02404 -0.75512,0.2902 -0.88672,0.67383l-4.27539,12.34961c-6.78431,0.12509 -12.97056,1.98011 -17.84961,5.00195c-1.32742,-1.19567 -3.00502,-2.02539 -4.92969,-2.02539c-4.13039,0 -7.5,3.36961 -7.5,7.5c0,2.3619 1.21083,4.36059 2.92383,5.73438c-0.57186,1.68433 -0.92383,3.44123 -0.92383,5.26563c0,6.0398 3.34684,11.46008 8.60938,15.31055c5.26253,3.85046 12.45978,6.18945 20.39063,6.18945c7.93084,0 15.1281,-2.33899 20.39063,-6.18945c5.26253,-3.85046 8.60938,-9.27074 8.60938,-15.31055c0,-1.8244 -0.35197,-3.5813 -0.92383,-5.26562c1.713,-1.37378 2.92383,-3.37247 2.92383,-5.73437c0,-4.13039 -3.36961,-7.5 -7.5,-7.5c-1.92467,0 -3.60227,0.82972 -4.92969,2.02539c-4.71809,-2.92215 -10.66043,-4.74673 -17.18164,-4.97852l3.72656,-10.76758l7.96875,2.83594c-0.05208,0.28791 -0.08398,0.58246 -0.08398,0.88477c0,2.74958 2.25042,5 5,5c2.74958,0 5,-2.25042 5,-5c0,-2.74958 -2.25042,-5 -5,-5c-1.73837,0 -3.27316,0.90133 -4.16992,2.25781l-8.99414,-3.19922c-0.09479,-0.03428 -0.19422,-0.05404 -0.29492,-0.05859c-0.03318,-0.00165 -0.06643,-0.00165 -0.09961,0zM50,7c1.6687,0 3,1.3313 3,3c0,1.6687 -1.3313,3 -3,3c-1.6687,0 -3,-1.3313 -3,-3c0,-1.6687 1.3313,-3 3,-3zM32,19c6.97601,0 13.32148,1.92175 18.08984,5.03516c0.41554,0.2705 0.96653,0.19571 1.29492,-0.17578c1.01059,-1.14126 2.47032,-1.85937 4.11523,-1.85937c3.04961,0 5.5,2.45039 5.5,5.5c0,1.96281 -1.0244,3.66866 -2.56445,4.64453c-0.40052,0.25457 -0.56698,0.75558 -0.39844,1.19922c0.62602,1.64777 0.96289,3.37188 0.96289,5.15625c0,5.3032 -2.9203,10.13348 -7.79102,13.69727c-4.87072,3.56379 -11.67283,5.80273 -19.20898,5.80273c-7.53616,0 -14.33826,-2.23895 -19.20898,-5.80273c-4.87072,-3.56379 -7.79102,-8.39407 -7.79102,-13.69727c0,-1.78437 0.33687,-3.50848 0.96289,-5.15625c0.16854,-0.44364 0.00209,-0.94465 -0.39844,-1.19922c-1.54005,-0.97587 -2.56445,-2.68172 -2.56445,-4.64453c0,-3.04961 2.45039,-5.5 5.5,-5.5c1.64491,0 3.10465,0.71812 4.11523,1.85938c0.32839,0.37149 0.87939,0.44628 1.29492,0.17578c4.76836,-3.1134 11.11383,-5.03516 18.08984,-5.03516zM32,21c-0.552,0 -1,0.448 -1,1v2c0,0.552 0.448,1 1,1c0.552,0 1,-0.448 1,-1v-2c0,-0.552 -0.448,-1 -1,-1zM26.48242,21.43555c-0.545,0.087 -0.91708,0.59953 -0.83008,1.14453l0.31445,1.97656c0.078,0.492 0.50333,0.8418 0.98633,0.8418c0.052,0 0.1042,-0.00272 0.1582,-0.01172c0.545,-0.087 0.91708,-0.60149 0.83008,-1.14648l-0.31445,-1.97461c-0.087,-0.546 -0.60353,-0.92208 -1.14453,-0.83008zM37.51953,21.43555c-0.544,-0.087 -1.05948,0.28608 -1.14648,0.83008l-0.31445,1.97461c-0.087,0.545 0.28408,1.05948 0.83008,1.14648c0.053,0.009 0.1062,0.01172 0.1582,0.01172c0.483,0 0.90733,-0.3498 0.98633,-0.8418l0.31641,-1.97656c0.087,-0.545 -0.28408,-1.05753 -0.83008,-1.14453zM21.47266,22.72266c-0.12942,-0.00895 -0.26283,0.00748 -0.39258,0.05273c-0.523,0.18 -0.80109,0.74948 -0.62109,1.27148l0.65039,1.89063c0.143,0.414 0.53031,0.67383 0.94531,0.67383c0.108,0 0.21917,-0.01573 0.32617,-0.05273c0.523,-0.18 0.80109,-0.74948 0.62109,-1.27148l-0.65039,-1.89062c-0.135,-0.3915 -0.49064,-0.64697 -0.87891,-0.67383zM42.52344,22.72266c-0.39014,0.027 -0.7415,0.28037 -0.875,0.67188l-0.64844,1.89063c-0.18,0.522 0.09714,1.09148 0.61914,1.27148c0.108,0.037 0.21917,0.05469 0.32617,0.05469c0.415,0 0.80331,-0.25978 0.94531,-0.67578l0.64844,-1.89062c0.18,-0.522 -0.09714,-1.09148 -0.61914,-1.27148c-0.13225,-0.045 -0.26644,-0.05978 -0.39648,-0.05078zM16.34375,24.98047c-0.12867,0.01725 -0.25625,0.06061 -0.375,0.13086c-0.476,0.281 -0.63452,0.89314 -0.35352,1.36914l1.01758,1.72266c0.186,0.316 0.51933,0.49219 0.86133,0.49219c0.173,0 0.34781,-0.04567 0.50781,-0.13867c0.476,-0.281 0.63452,-0.89314 0.35352,-1.36914l-1.01562,-1.72266c-0.2115,-0.35775 -0.61008,-0.53612 -0.99609,-0.48437zM47.65625,24.98047c-0.38569,-0.0518 -0.78339,0.12542 -0.99414,0.48242l-1.01758,1.72266c-0.28,0.476 -0.12248,1.09009 0.35352,1.37109c0.159,0.095 0.33481,0.13867 0.50781,0.13867c0.342,0 0.67533,-0.17619 0.86133,-0.49219l1.01758,-1.72266c0.28,-0.476 0.12248,-1.09009 -0.35352,-1.37109c-0.11825,-0.07025 -0.24644,-0.11164 -0.375,-0.12891zM21,31c-2.74958,0 -5,2.25042 -5,5c0,2.74958 2.25042,5 5,5c2.74958,0 5,-2.25042 5,-5c0,-2.74958 -2.25042,-5 -5,-5zM43,31c-2.74958,0 -5,2.25042 -5,5c0,2.74958 2.25042,5 5,5c2.74958,0 5,-2.25042 5,-5c0,-2.74958 -2.25042,-5 -5,-5zM21,33c1.6687,0 3,1.3313 3,3c0,1.6687 -1.3313,3 -3,3c-1.6687,0 -3,-1.3313 -3,-3c0,-1.6687 1.3313,-3 3,-3zM43,33c1.6687,0 3,1.3313 3,3c0,1.6687 -1.3313,3 -3,3c-1.6687,0 -3,-1.3313 -3,-3c0,-1.6687 1.3313,-3 3,-3zM20.00195,45.98828c-0.38935,-0.00465 -0.74601,0.2171 -0.91409,0.56834c-0.16808,0.35124 -0.11701,0.7681 0.13088,1.06838c0,0 4.36458,5.375 12.78125,5.375c8.41667,0 12.78125,-5.375 12.78125,-5.375c0.22341,-0.2791 0.28091,-0.65621 0.15085,-0.98921c-0.13007,-0.33301 -0.42794,-0.5713 -0.78137,-0.6251c-0.35343,-0.0538 -0.70872,0.08508 -0.93197,0.36431c0,0 -3.63542,4.625 -11.21875,4.625c-7.58333,0 -11.21875,-4.625 -11.21875,-4.625c-0.18716,-0.24106 -0.47413,-0.38347 -0.7793,-0.38672z"></path></g></g></svg>