<svg xmlns="http://www.w3.org/2000/svg" xmlns:xlink="http://www.w3.org/1999/xlink" viewBox="0,0,256,256" width="64px" height="64px"><g fill="#ffffff" fill-rule="nonzero" stroke="none" stroke-width="1" stroke-linecap="butt" stroke-linejoin="miter" stroke-miterlimit="10" stroke-dasharray="" stroke-dashoffset="0" font-family="none" font-weight="none" font-size="none" text-anchor="none" style="mix-blend-mode: normal"><g transform="scale(4,4)"><path d="M31,4c-11.09766,0 -20.75781,6.26953 -25.63281,15.45313c-0.01562,0.03125 -0.03516,0.06641 -0.04687,0.10156c-2.11719,4.02344 -3.32031,8.59375 -3.32031,13.44531c0,12.57813 8.05078,23.30859 19.26953,27.31641c0.03906,0.01563 0.07813,0.02734 0.11719,0.03906c3.01172,1.0625 6.24609,1.64453 9.61328,1.64453c15.98828,0 29,-13.01172 29,-29c0,-6.00391 -1.83594,-11.58594 -4.97266,-16.21875c-0.07422,-0.15625 -0.15234,-0.30078 -0.24219,-0.44141c-0.17969,-0.28516 -0.39844,-0.54297 -0.63281,-0.78125c-5.30078,-7.01562 -13.70312,-11.55859 -23.15234,-11.55859zM31,6c7.48047,0 14.25391,3.05859 19.15234,7.98438c-0.35547,0.00391 -0.71484,0.02734 -1.07812,0.08984c-2.55078,0.44141 -4.48828,2.3125 -5.0625,4.875c-0.62891,2.80469 0.48828,4.98828 1.56641,7.09766c1.10938,2.16016 2.16016,4.20703 1.34766,6.87891l-3.69141,9.46484l-7.78125,-20.39062h1.54688c0.55469,0 1,-0.44531 1,-1c0,-0.55469 -0.44531,-1 -1,-1h-14c-0.55469,0 -1,0.44531 -1,1c0,0.55469 0.44531,1 1,1h1.98047l3.60156,9.23828l-4.34766,11.15234l-7.78125,-20.39062h2.54688c0.55469,0 1,-0.44531 1,-1c0,-0.55469 -0.44531,-1 -1,-1h-11.65234v-0.00391c4.60156,-8.33594 13.47656,-13.99609 23.65234,-13.99609zM31.01172,9c-0.55469,0 -1,0.44531 -1,1v2c0,0.55469 0.44531,1 1,1c0.55469,0 1,-0.44531 1,-1v-2c0,-0.55469 -0.44531,-1 -1,-1zM25.58594,9.74219c-0.12891,-0.01953 -0.26562,-0.01172 -0.39844,0.02344c-0.53125,0.14453 -0.85156,0.69141 -0.70703,1.22266l0.51953,1.93359c0.11719,0.44922 0.52344,0.74219 0.96484,0.74219c0.08594,0 0.17188,-0.01172 0.25781,-0.03516c0.53516,-0.14062 0.85156,-0.69141 0.71094,-1.22266l-0.52344,-1.93359c-0.10547,-0.40234 -0.4375,-0.67969 -0.82422,-0.73047zM36.44141,9.74219c-0.38672,0.05469 -0.72266,0.32813 -0.83203,0.73047l-0.51562,1.93359c-0.14453,0.53125 0.17578,1.08203 0.70703,1.22266c0.08594,0.02344 0.17188,0.03516 0.26172,0.03516c0.4375,0 0.84375,-0.29297 0.96484,-0.74219l0.51563,-1.93359c0.14453,-0.53125 -0.17578,-1.07812 -0.70703,-1.22266c-0.13281,-0.03516 -0.26562,-0.04297 -0.39453,-0.02344zM20.13672,11.89063c-0.12891,0.01563 -0.25781,0.05469 -0.375,0.125c-0.48047,0.27734 -0.64062,0.88672 -0.36719,1.36328l1,1.73047c0.1875,0.32422 0.52344,0.5 0.87109,0.5c0.16797,0 0.33984,-0.03906 0.49609,-0.12891c0.48047,-0.27734 0.64453,-0.89062 0.36719,-1.37109l-1,-1.73047c-0.20703,-0.35547 -0.60547,-0.53906 -0.99219,-0.48828zM41.88672,11.89063c-0.38672,-0.05078 -0.78516,0.13281 -0.99219,0.49219l-1,1.73047c-0.27344,0.47656 -0.11328,1.08984 0.36719,1.36719c0.15625,0.08984 0.32813,0.13281 0.5,0.13281c0.34766,0 0.68359,-0.17969 0.86719,-0.5l1,-1.73047c0.27734,-0.48047 0.10938,-1.08984 -0.36719,-1.36719c-0.12109,-0.07031 -0.24609,-0.10937 -0.375,-0.125zM50.34766,15.98047c0.90234,0.03516 1.71875,0.35156 2.29688,0.89844c0.20703,0.27344 0.40234,0.55469 0.59375,0.83594c1.48828,3.19141 -1.43359,12.43359 -3.73437,17.72656l-8.56641,21.98047l-8.57031,-21.98047c-0.00391,-0.00391 -0.00781,-0.00781 -0.00781,-0.01562c-0.03125,-0.07422 -0.08594,-0.14062 -0.13281,-0.20703c-0.02734,-0.03516 -0.05078,-0.08594 -0.08594,-0.12109c-0.03516,-0.03516 -0.08984,-0.05859 -0.13281,-0.09375c-0.0625,-0.04297 -0.12109,-0.08984 -0.19141,-0.11719c-0.00391,-0.00391 -0.00781,-0.01172 -0.01562,-0.01172c-0.04687,-0.01953 -0.09766,-0.01562 -0.14453,-0.02734c-0.07422,-0.01562 -0.14453,-0.03906 -0.21875,-0.03906c-0.07422,0 -0.14844,0.02344 -0.21875,0.03906c-0.05078,0.01172 -0.09766,0.00781 -0.14453,0.02734c-0.00781,0 -0.01172,0.00781 -0.01562,0.01172c-0.07422,0.02734 -0.13672,0.07813 -0.19922,0.125c-0.04297,0.03125 -0.09375,0.05078 -0.12891,0.08594c-0.03516,0.03906 -0.05469,0.08594 -0.08594,0.125c-0.04687,0.06641 -0.09766,0.12891 -0.12891,0.19922c-0.00391,0.00781 -0.00781,0.01172 -0.01172,0.01953l-8.56641,21.98047l-13.8125,-35.42187h6.1875l8.98047,23.52344c0.00391,0.00781 0.01172,0.01563 0.01563,0.02344c0.01172,0.03125 0.02734,0.05469 0.04297,0.08203c0.04297,0.07813 0.08984,0.14844 0.14844,0.21484c0.02734,0.02734 0.05469,0.05078 0.08203,0.07813c0.06641,0.05469 0.14453,0.10156 0.22656,0.14063c0.01953,0.01172 0.03125,0.02734 0.05469,0.03516c0.01172,0.00391 0.01953,0 0.03125,0.00781c0.10547,0.03516 0.21875,0.0625 0.33203,0.0625c0.11328,0 0.22266,-0.02734 0.32422,-0.0625c0.01172,-0.00391 0.01953,0 0.03125,-0.00781c0.02344,-0.00781 0.03906,-0.02344 0.05859,-0.03516c0.08203,-0.03516 0.15625,-0.08203 0.22266,-0.14062c0.03125,-0.02344 0.05859,-0.04687 0.08594,-0.07812c0.05859,-0.05859 0.10547,-0.13281 0.14844,-0.21094c0.01563,-0.02734 0.03516,-0.05078 0.04688,-0.08203c0.00391,-0.00781 0.00781,-0.01562 0.01172,-0.02344l5.41016,-13.87109c0.00391,-0.01172 0.00781,-0.01953 0.01172,-0.03125l0.01172,-0.02344c0.00781,-0.02734 0.00391,-0.05859 0.01172,-0.08594c0.02734,-0.09375 0.05078,-0.18359 0.05078,-0.28125c0,-0.06641 -0.01953,-0.12891 -0.03516,-0.19531c-0.01172,-0.05469 -0.00781,-0.10547 -0.02734,-0.16016l-3.46094,-8.87891h6.18359l8.98438,23.52344c0.00391,0.00781 0.00781,0.01563 0.01172,0.02344c0.01172,0.03125 0.03125,0.05469 0.04688,0.08203c0.03906,0.07813 0.08594,0.14844 0.14453,0.21484c0.02734,0.02734 0.05469,0.05078 0.08203,0.07813c0.07031,0.05469 0.14453,0.10156 0.22656,0.14063c0.01953,0.01172 0.03125,0.02734 0.05469,0.03516c0.01172,0.00391 0.01953,0.00391 0.03125,0.00781c0.10547,0.03516 0.21875,0.0625 0.33594,0.0625c0.00391,0 0.00391,-0.00391 0.00781,-0.00391c0.05078,0 0.10156,-0.01953 0.15234,-0.02734c0.0625,-0.01172 0.12891,-0.01172 0.19141,-0.03516c0.01172,-0.00391 0.01172,-0.00781 0.02344,-0.01172c0.07031,-0.02734 0.12891,-0.07812 0.19141,-0.12109c0.04297,-0.03516 0.09766,-0.05859 0.13672,-0.09375c0.03516,-0.03906 0.05859,-0.08594 0.08594,-0.12891c0.04688,-0.06641 0.09766,-0.125 0.125,-0.19531c0.00391,-0.00781 0.01172,-0.01172 0.01563,-0.01953l4.65234,-11.94922c1.07422,-3.51953 -0.26562,-6.14062 -1.44922,-8.44922c-1.00391,-1.95703 -1.86719,-3.64844 -1.39844,-5.74609c0.39844,-1.78516 1.69141,-3.03516 3.45703,-3.33984c0.3125,-0.05859 0.625,-0.07812 0.92578,-0.06641zM55.55859,21.80469c1.5625,3.41406 2.44141,7.20313 2.44141,11.19531c0,10.48828 -6.01562,19.59375 -14.77734,24.0625l8.13281,-20.85937c0.48047,-1.11328 3.64453,-8.57812 4.20313,-14.39844zM6.15234,22.4375l13.69922,35.14063c-9.33984,-4.25 -15.85156,-13.66406 -15.85156,-24.57812c0,-3.74609 0.76563,-7.31641 2.15234,-10.5625zM31.4375,38.5625l7.84766,20.12891c-2.61328,0.84766 -5.39453,1.30859 -8.28516,1.30859c-2.60547,0 -5.12109,-0.37891 -7.50391,-1.06641z"></path></g></g></svg>